<?xml version="1.0" encoding="utf-8"?>
<!-- Generator: Adobe Illustrator 23.0.2, SVG Export Plug-In . SVG Version: 6.00 Build 0)  -->
<svg version="1.1" id="Layer_1" xmlns="http://www.w3.org/2000/svg" xmlns:xlink="http://www.w3.org/1999/xlink" x="0px" y="0px"
	 viewBox="0 0 261 94" style="enable-background:new 0 0 261 94;" xml:space="preserve">
<style type="text/css">
	.st0{opacity:0.54;}
	.st1{fill:#FFFFFF;}
	.st2{fill:none;stroke:#FFFFFF;stroke-miterlimit:10;}
</style>
<g class="st0">
	<g>
		<path class="st1" d="M12.1,91.9c-2.2-0.9-3.9-2.2-5.2-4s-2-3.9-2.1-6.3h9.8c0.1,1.4,0.6,2.5,1.4,3.2s1.9,1.1,3.2,1.1
			c1.4,0,2.4-0.3,3.2-0.9c0.8-0.6,1.2-1.5,1.2-2.6c0-0.9-0.3-1.7-0.9-2.3c-0.6-0.6-1.4-1.1-2.3-1.5s-2.2-0.8-3.9-1.3
			c-2.4-0.8-4.4-1.5-6-2.3c-1.5-0.8-2.9-1.9-4-3.3c-1.1-1.5-1.7-3.4-1.7-5.7c0-3.5,1.3-6.3,3.8-8.2c2.5-2,5.8-3,9.9-3s7.5,1,10,3
			s3.9,4.7,4.1,8.3h-9.9c-0.1-1.2-0.5-2.2-1.3-2.9s-1.9-1-3.2-1c-1.1,0-2,0.3-2.7,0.9c-0.7,0.6-1,1.4-1,2.5c0,1.2,0.6,2.2,1.7,2.8
			c1.1,0.7,2.9,1.4,5.4,2.2c2.4,0.8,4.4,1.6,5.9,2.4s2.8,1.8,3.9,3.3c1.1,1.4,1.7,3.3,1.7,5.5c0,2.1-0.5,4.1-1.6,5.8
			c-1.1,1.8-2.7,3.1-4.7,4.2c-2.1,1-4.5,1.6-7.4,1.6C16.7,93.2,14.2,92.8,12.1,91.9z"/>
		<path class="st1" d="M55.5,85.1v7.8h-4.7c-3.3,0-5.9-0.8-7.8-2.4c-1.9-1.6-2.8-4.3-2.8-8V70.6h-3.6V63h3.6v-7.3h9.2V63h6v7.6h-6
			v12c0,0.9,0.2,1.5,0.6,1.9c0.4,0.4,1.1,0.6,2.1,0.6H55.5z"/>
		<path class="st1" d="M90.2,62.9v29.9H81v-4.1c-0.9,1.3-2.2,2.4-3.8,3.2c-1.6,0.8-3.4,1.2-5.3,1.2c-2.3,0-4.3-0.5-6.1-1.5
			s-3.1-2.5-4.1-4.4s-1.4-4.2-1.4-6.8V62.9h9.1v16.3c0,2,0.5,3.6,1.6,4.7c1,1.1,2.4,1.7,4.2,1.7c1.8,0,3.2-0.6,4.2-1.7
			s1.6-2.7,1.6-4.7V62.9H90.2z"/>
		<path class="st1" d="M96.7,69.7c1.2-2.3,2.7-4.1,4.7-5.4c2-1.3,4.2-1.9,6.7-1.9c2,0,3.8,0.4,5.4,1.2s2.9,1.9,3.8,3.3V53.2h9.2
			v39.7h-9.2v-4.3c-0.9,1.4-2.1,2.6-3.7,3.4c-1.6,0.9-3.4,1.3-5.6,1.3c-2.5,0-4.7-0.6-6.7-1.9s-3.6-3.1-4.7-5.4
			c-1.2-2.3-1.7-5.1-1.7-8.1C95,74.8,95.5,72.1,96.7,69.7z M115.5,72.5c-1.3-1.3-2.8-2-4.6-2c-1.8,0-3.4,0.7-4.6,2
			c-1.3,1.3-1.9,3.1-1.9,5.4s0.6,4.1,1.9,5.4s2.8,2,4.6,2c1.8,0,3.4-0.7,4.6-2s1.9-3.1,1.9-5.4S116.8,73.8,115.5,72.5z"/>
		<path class="st1" d="M133.9,58.4c-1-0.9-1.5-2.1-1.5-3.5s0.5-2.6,1.5-3.6s2.3-1.4,3.9-1.4c1.6,0,2.9,0.5,3.9,1.4s1.5,2.1,1.5,3.6
			c0,1.4-0.5,2.6-1.5,3.5s-2.3,1.4-3.9,1.4C136.2,59.8,134.9,59.3,133.9,58.4z M142.4,62.9v29.9h-9.2V62.9H142.4z"/>
		<path class="st1" d="M154.8,91.4c-2.3-1.3-4.2-3-5.5-5.4s-2-5-2-8.2c0-3.1,0.7-5.8,2-8.1s3.2-4.1,5.6-5.4c2.4-1.3,5-1.9,7.9-1.9
			s5.6,0.6,7.9,1.9c2.4,1.3,4.2,3,5.6,5.4c1.4,2.3,2,5.1,2,8.1c0,3.1-0.7,5.8-2.1,8.1c-1.4,2.3-3.3,4.1-5.6,5.4
			c-2.4,1.3-5,1.9-8,1.9C159.7,93.3,157.1,92.7,154.8,91.4z M167.2,83.4c1.2-1.3,1.9-3.1,1.9-5.5s-0.6-4.2-1.8-5.5s-2.7-1.9-4.4-1.9
			c-1.8,0-3.3,0.6-4.5,1.9s-1.8,3.1-1.8,5.6c0,2.4,0.6,4.2,1.7,5.5c1.2,1.3,2.6,1.9,4.4,1.9C164.4,85.4,165.9,84.7,167.2,83.4z"/>
	</g>
</g>
<g>
	<g>
		<path class="st2" d="M9.1,88.9c-2.2-0.9-3.9-2.2-5.2-4s-2-3.9-2.1-6.3h9.8c0.1,1.4,0.6,2.5,1.4,3.2s1.9,1.1,3.2,1.1
			c1.4,0,2.4-0.3,3.2-0.9c0.8-0.6,1.2-1.5,1.2-2.6c0-0.9-0.3-1.7-0.9-2.3c-0.6-0.6-1.4-1.1-2.3-1.5s-2.2-0.8-3.9-1.3
			C11,73.5,9,72.7,7.5,72c-1.5-0.8-2.9-1.9-4-3.3c-1.1-1.5-1.7-3.4-1.7-5.7c0-3.5,1.3-6.3,3.8-8.2c2.5-2,5.8-3,9.9-3s7.5,1,10,3
			s3.9,4.7,4.1,8.3h-9.9c-0.1-1.2-0.5-2.2-1.3-2.9s-1.9-1-3.2-1c-1.1,0-2,0.3-2.7,0.9c-0.7,0.6-1,1.4-1,2.5c0,1.2,0.6,2.2,1.7,2.8
			c1.1,0.7,2.9,1.4,5.4,2.2c2.4,0.8,4.4,1.6,5.9,2.4s2.8,1.8,3.9,3.3c1.1,1.4,1.7,3.3,1.7,5.5c0,2.1-0.5,4.1-1.6,5.8
			c-1.1,1.8-2.7,3.1-4.7,4.2c-2.1,1-4.5,1.6-7.4,1.6C13.7,90.2,11.2,89.8,9.1,88.9z"/>
		<path class="st2" d="M52.5,82.1v7.8h-4.7c-3.3,0-5.9-0.8-7.8-2.4c-1.9-1.6-2.8-4.3-2.8-8V67.6h-3.6V60h3.6v-7.3h9.2V60h6v7.6h-6
			v12c0,0.9,0.2,1.5,0.6,1.9c0.4,0.4,1.1,0.6,2.1,0.6H52.5z"/>
		<path class="st2" d="M87.2,59.9v29.9H78v-4.1c-0.9,1.3-2.2,2.4-3.8,3.2c-1.6,0.8-3.4,1.2-5.3,1.2c-2.3,0-4.3-0.5-6.1-1.5
			s-3.1-2.5-4.1-4.4s-1.4-4.2-1.4-6.8V59.9h9.1v16.3c0,2,0.5,3.6,1.6,4.7c1,1.1,2.4,1.7,4.2,1.7c1.8,0,3.2-0.6,4.2-1.7
			s1.6-2.7,1.6-4.7V59.9H87.2z"/>
		<path class="st2" d="M93.7,66.7c1.2-2.3,2.7-4.1,4.7-5.4c2-1.3,4.2-1.9,6.7-1.9c2,0,3.8,0.4,5.4,1.2s2.9,1.9,3.8,3.3V50.2h9.2
			v39.7h-9.2v-4.3c-0.9,1.4-2.1,2.6-3.7,3.4c-1.6,0.9-3.4,1.3-5.6,1.3c-2.5,0-4.7-0.6-6.7-1.9s-3.6-3.1-4.7-5.4
			c-1.2-2.3-1.7-5.1-1.7-8.1C92,71.8,92.5,69.1,93.7,66.7z M112.5,69.5c-1.3-1.3-2.8-2-4.6-2c-1.8,0-3.4,0.7-4.6,2
			c-1.3,1.3-1.9,3.1-1.9,5.4s0.6,4.1,1.9,5.4s2.8,2,4.6,2c1.8,0,3.4-0.7,4.6-2s1.9-3.1,1.9-5.4S113.8,70.8,112.5,69.5z"/>
		<path class="st2" d="M130.9,55.4c-1-0.9-1.5-2.1-1.5-3.5s0.5-2.6,1.5-3.6s2.3-1.4,3.9-1.4c1.6,0,2.9,0.5,3.9,1.4s1.5,2.1,1.5,3.6
			c0,1.4-0.5,2.6-1.5,3.5s-2.3,1.4-3.9,1.4C133.2,56.8,131.9,56.3,130.9,55.4z M139.4,59.9v29.9h-9.2V59.9H139.4z"/>
		<path class="st2" d="M151.8,88.4c-2.3-1.3-4.2-3-5.5-5.4s-2-5-2-8.2c0-3.1,0.7-5.8,2-8.1s3.2-4.1,5.6-5.4c2.4-1.3,5-1.9,7.9-1.9
			s5.6,0.6,7.9,1.9c2.4,1.3,4.2,3,5.6,5.4c1.4,2.3,2,5.1,2,8.1c0,3.1-0.7,5.8-2.1,8.1c-1.4,2.3-3.3,4.1-5.6,5.4
			c-2.4,1.3-5,1.9-8,1.9C156.7,90.3,154.1,89.7,151.8,88.4z M164.2,80.4c1.2-1.3,1.9-3.1,1.9-5.5s-0.6-4.2-1.8-5.5s-2.7-1.9-4.4-1.9
			c-1.8,0-3.3,0.6-4.5,1.9s-1.8,3.1-1.8,5.6c0,2.4,0.6,4.2,1.7,5.5c1.2,1.3,2.6,1.9,4.4,1.9C161.4,82.4,162.9,81.7,164.2,80.4z"/>
	</g>
</g>
<g class="st0">
	<g>
		<path class="st1" d="M39.5,43.9h-9.2L15,20.6v23.2H5.8V6.2H15l15.3,23.3V6.2h9.2V43.9z"/>
		<path class="st1" d="M74.2,31.1H53.5c0.1,1.9,0.7,3.3,1.8,4.3s2.4,1.5,3.9,1.5c2.3,0,3.9-1,4.8-2.9h9.8c-0.5,2-1.4,3.7-2.7,5.3
			c-1.3,1.6-2.9,2.8-4.9,3.7s-4.2,1.3-6.6,1.3c-2.9,0-5.5-0.6-7.8-1.9c-2.3-1.3-4.1-3-5.4-5.4c-1.3-2.3-1.9-5-1.9-8.2
			s0.6-5.8,1.9-8.2c1.3-2.3,3-4.1,5.3-5.4s4.9-1.9,7.9-1.9c2.9,0,5.5,0.6,7.7,1.8c2.3,1.2,4,3,5.3,5.2c1.3,2.3,1.9,4.9,1.9,7.9
			C74.4,29.3,74.4,30.2,74.2,31.1z M65,26c0-1.6-0.5-2.8-1.6-3.8c-1.1-0.9-2.4-1.4-4-1.4c-1.5,0-2.8,0.4-3.9,1.3
			c-1.1,0.9-1.7,2.2-2,3.8H65V26z"/>
		<path class="st1" d="M85,42.4c-2.3-1.3-4.2-3-5.5-5.4s-2-5-2-8.2c0-3.1,0.7-5.8,2-8.1s3.2-4.1,5.6-5.4s5-1.9,7.9-1.9
			s5.6,0.6,7.9,1.9c2.4,1.3,4.2,3,5.6,5.4c1.4,2.3,2,5.1,2,8.1c0,3.1-0.7,5.8-2.1,8.1c-1.4,2.3-3.3,4.1-5.6,5.4
			c-2.4,1.3-5,1.9-8,1.9C89.9,44.3,87.3,43.7,85,42.4z M97.3,34.4c1.2-1.3,1.9-3.1,1.9-5.5s-0.6-4.2-1.8-5.5
			c-1.2-1.3-2.7-1.9-4.4-1.9c-1.8,0-3.3,0.6-4.5,1.9s-1.8,3.1-1.8,5.6c0,2.4,0.6,4.2,1.7,5.5c1.2,1.3,2.6,1.9,4.4,1.9
			S96.1,35.7,97.3,34.4z"/>
		<path class="st1" d="M140.1,17c2.1,2.3,3.1,5.4,3.1,9.4v17.5h-9.1V27.6c0-2-0.5-3.6-1.6-4.7c-1-1.1-2.4-1.7-4.2-1.7
			s-3.1,0.6-4.2,1.7c-1,1.1-1.6,2.7-1.6,4.7v16.3h-9.2v-30h9.2v4c0.9-1.3,2.2-2.4,3.8-3.1c1.6-0.8,3.3-1.2,5.3-1.2
			C135.2,13.6,138,14.7,140.1,17z"/>
		<path class="st1" d="M192.6,13.9l-8.1,29.9h-10.1l-4.7-19.4l-4.9,19.4h-10.1l-8.2-29.9h9.2l4.2,21.4l5-21.4h9.7l5.1,21.3l4.2-21.3
			C183.9,13.9,192.6,13.9,192.6,13.9z"/>
		<path class="st1" d="M224.1,31.1h-20.8c0.1,1.9,0.7,3.3,1.8,4.3s2.4,1.5,3.9,1.5c2.3,0,3.9-1,4.8-2.9h9.8c-0.5,2-1.4,3.7-2.7,5.3
			S218,42.1,216,43s-4.2,1.3-6.6,1.3c-2.9,0-5.5-0.6-7.8-1.9c-2.3-1.3-4.1-3-5.4-5.4c-1.3-2.3-1.9-5-1.9-8.2s0.6-5.8,1.9-8.2
			c1.3-2.3,3-4.1,5.3-5.4s4.9-1.9,7.9-1.9c2.9,0,5.5,0.6,7.7,1.8c2.3,1.2,4,3,5.3,5.2c1.3,2.3,1.9,4.9,1.9,7.9
			C224.3,29.3,224.2,30.2,224.1,31.1z M214.9,26c0-1.6-0.5-2.8-1.6-3.8c-1.1-0.9-2.4-1.4-4-1.4c-1.5,0-2.8,0.4-3.9,1.3
			c-1.1,0.9-1.7,2.2-2,3.8h11.5V26z"/>
		<path class="st1" d="M242,14.8c1.6-0.9,3.5-1.3,5.5-1.3c2.5,0,4.7,0.6,6.7,1.9c2,1.3,3.6,3,4.7,5.4c1.2,2.3,1.7,5,1.7,8.1
			s-0.6,5.8-1.7,8.1c-1.2,2.3-2.7,4.2-4.7,5.4c-2,1.3-4.2,1.9-6.7,1.9c-2.1,0-4-0.4-5.5-1.3c-1.6-0.8-2.8-2-3.7-3.4v4.2h-9.2V4.2
			h9.2v14C239.1,16.8,240.4,15.6,242,14.8z M249.5,23.5c-1.3-1.3-2.8-2-4.7-2c-1.8,0-3.4,0.7-4.6,2c-1.3,1.3-1.9,3.1-1.9,5.4
			s0.6,4.1,1.9,5.4c1.3,1.3,2.8,2,4.6,2s3.4-0.7,4.7-2s1.9-3.2,1.9-5.4C251.4,26.6,250.7,24.8,249.5,23.5z"/>
	</g>
</g>
<g>
	<g>
		<path class="st2" d="M36.5,40.9h-9.2L12,17.6v23.2H2.8V3.2H12l15.3,23.3V3.2h9.2V40.9z"/>
		<path class="st2" d="M71.2,28.1H50.5c0.1,1.9,0.7,3.3,1.8,4.3c1.1,1,2.4,1.5,3.9,1.5c2.3,0,3.9-1,4.8-2.9h9.8
			c-0.5,2-1.4,3.7-2.7,5.3c-1.3,1.6-2.9,2.8-4.9,3.7s-4.2,1.3-6.6,1.3c-2.9,0-5.5-0.6-7.8-1.9c-2.3-1.3-4.1-3-5.4-5.4
			c-1.3-2.3-1.9-5-1.9-8.2s0.6-5.8,1.9-8.2c1.3-2.3,3-4.1,5.3-5.4s4.9-1.9,7.9-1.9c2.9,0,5.5,0.6,7.7,1.8c2.3,1.2,4,3,5.3,5.2
			c1.3,2.3,1.9,4.9,1.9,7.9C71.4,26.3,71.4,27.2,71.2,28.1z M62,23c0-1.6-0.5-2.8-1.6-3.8c-1.1-0.9-2.4-1.4-4-1.4
			c-1.5,0-2.8,0.4-3.9,1.3c-1.1,0.9-1.7,2.2-2,3.8H62V23z"/>
		<path class="st2" d="M82,39.4c-2.3-1.3-4.2-3-5.5-5.4s-2-5-2-8.2c0-3.1,0.7-5.8,2-8.1s3.2-4.1,5.6-5.4s5-1.9,7.9-1.9
			s5.6,0.6,7.9,1.9c2.4,1.3,4.2,3,5.6,5.4c1.4,2.3,2,5.1,2,8.1c0,3.1-0.7,5.8-2.1,8.1c-1.4,2.3-3.3,4.1-5.6,5.4
			c-2.4,1.3-5,1.9-8,1.9C86.9,41.3,84.3,40.7,82,39.4z M94.3,31.4c1.2-1.3,1.9-3.1,1.9-5.5s-0.6-4.2-1.8-5.5
			c-1.2-1.3-2.7-1.9-4.4-1.9c-1.8,0-3.3,0.6-4.5,1.9s-1.8,3.1-1.8,5.6c0,2.4,0.6,4.2,1.7,5.5c1.2,1.3,2.6,1.9,4.4,1.9
			S93.1,32.7,94.3,31.4z"/>
		<path class="st2" d="M137.1,14c2.1,2.3,3.1,5.4,3.1,9.4v17.5h-9.1V24.6c0-2-0.5-3.6-1.6-4.7c-1-1.1-2.4-1.7-4.2-1.7
			c-1.8,0-3.1,0.6-4.2,1.7c-1,1.1-1.6,2.7-1.6,4.7v16.3h-9.2v-30h9.2v4c0.9-1.3,2.2-2.4,3.8-3.1c1.6-0.8,3.3-1.2,5.3-1.2
			C132.2,10.6,135,11.7,137.1,14z"/>
		<path class="st2" d="M189.6,10.9l-8.1,29.9h-10.1l-4.7-19.4l-4.9,19.4h-10.1l-8.2-29.9h9.2l4.2,21.4l5-21.4h9.7l5.1,21.3l4.2-21.3
			C180.9,10.9,189.6,10.9,189.6,10.9z"/>
		<path class="st2" d="M221.1,28.1h-20.8c0.1,1.9,0.7,3.3,1.8,4.3c1.1,1,2.4,1.5,3.9,1.5c2.3,0,3.9-1,4.8-2.9h9.8
			c-0.5,2-1.4,3.7-2.7,5.3c-1.3,1.6-2.9,2.8-4.9,3.7s-4.2,1.3-6.6,1.3c-2.9,0-5.5-0.6-7.8-1.9c-2.3-1.3-4.1-3-5.4-5.4
			c-1.3-2.3-1.9-5-1.9-8.2s0.6-5.8,1.9-8.2c1.3-2.3,3-4.1,5.3-5.4s4.9-1.9,7.9-1.9c2.9,0,5.5,0.6,7.7,1.8c2.3,1.2,4,3,5.3,5.2
			c1.3,2.3,1.9,4.9,1.9,7.9C221.3,26.3,221.2,27.2,221.1,28.1z M211.9,23c0-1.6-0.5-2.8-1.6-3.8c-1.1-0.9-2.4-1.4-4-1.4
			c-1.5,0-2.8,0.4-3.9,1.3c-1.1,0.9-1.7,2.2-2,3.8h11.5V23z"/>
		<path class="st2" d="M239,11.8c1.6-0.9,3.5-1.3,5.5-1.3c2.5,0,4.7,0.6,6.7,1.9s3.6,3,4.7,5.4c1.2,2.3,1.7,5,1.7,8.1
			s-0.6,5.8-1.7,8.1c-1.2,2.3-2.7,4.2-4.7,5.4c-2,1.3-4.2,1.9-6.7,1.9c-2.1,0-4-0.4-5.5-1.3c-1.6-0.8-2.8-2-3.7-3.4v4.2h-9.2V1.2
			h9.2v14C236.1,13.8,237.4,12.6,239,11.8z M246.5,20.5c-1.3-1.3-2.8-2-4.7-2c-1.8,0-3.4,0.7-4.6,2c-1.3,1.3-1.9,3.1-1.9,5.4
			s0.6,4.1,1.9,5.4c1.3,1.3,2.8,2,4.6,2s3.4-0.7,4.7-2s1.9-3.2,1.9-5.4C248.4,23.6,247.7,21.8,246.5,20.5z"/>
	</g>
</g>
</svg>
