<?xml version="1.0" standalone="no"?>
<!DOCTYPE svg PUBLIC "-//W3C//DTD SVG 20010904//EN"
 "http://www.w3.org/TR/2001/REC-SVG-20010904/DTD/svg10.dtd">
<svg version="1.0" xmlns="http://www.w3.org/2000/svg"
 width="285.000000pt" height="285.000000pt" viewBox="0 0 285.000000 285.000000"
 preserveAspectRatio="xMidYMid meet">
<metadata>
Created by potrace 1.14, written by Peter Selinger 2001-2017
</metadata>
<g transform="translate(0.000000,285.000000) scale(0.100000,-0.100000)"
fill="#000000" stroke="none">
<path d="M1107 2595 c-1 -2 -34 -6 -74 -9 -189 -18 -382 -97 -523 -215 -172
-145 -261 -295 -317 -536 -2 -11 -6 -73 -7 -139 -5 -190 32 -334 126 -489 47
-79 164 -204 244 -260 61 -43 192 -110 249 -127 34 -10 47 -23 83 -79 41 -64
111 -140 192 -211 48 -42 242 -135 315 -151 33 -7 62 -13 65 -14 28 -7 161
-18 220 -18 257 -1 479 80 645 234 109 101 178 209 219 338 113 359 -23 741
-336 943 -63 41 -67 46 -93 116 -49 137 -127 255 -232 352 -189 175 -404 257
-690 264 -46 2 -84 2 -86 1z m275 -189 c147 -28 266 -90 380 -195 63 -59 123
-135 157 -199 13 -24 12 -24 -31 -18 -112 15 -137 17 -198 17 -229 1 -440 -60
-585 -171 -190 -144 -297 -318 -329 -535 -12 -82 -13 -226 -2 -271 l7 -25 -33
17 c-110 56 -240 177 -301 282 -73 125 -93 207 -91 387 1 101 6 133 28 203 74
227 252 404 485 482 140 46 353 57 513 26z"/>
</g>
</svg>
